<?xml version="1.0" encoding="UTF-8" standalone="no"?>
<svg
   clip-rule="evenodd"
   fill-rule="evenodd"
   height="50mm"
   image-rendering="optimizeQuality"
   shape-rendering="geometricPrecision"
   text-rendering="geometricPrecision"
   viewBox="0 0 50 50"
   width="50mm"
   version="1.1"
   id="svg3"
   sodipodi:docname="bR.svg"
   inkscape:version="1.3.2 (091e20e, 2023-11-25)"
   xmlns:inkscape="http://www.inkscape.org/namespaces/inkscape"
   xmlns:sodipodi="http://sodipodi.sourceforge.net/DTD/sodipodi-0.dtd"
   xmlns="http://www.w3.org/2000/svg"
   xmlns:svg="http://www.w3.org/2000/svg">
  <defs
     id="defs3" />
  <sodipodi:namedview
     id="namedview3"
     pagecolor="#ffffff"
     bordercolor="#000000"
     borderopacity="0.25"
     inkscape:showpageshadow="2"
     inkscape:pageopacity="0.0"
     inkscape:pagecheckerboard="0"
     inkscape:deskcolor="#d1d1d1"
     inkscape:document-units="mm"
     inkscape:zoom="1.2488333"
     inkscape:cx="94.087815"
     inkscape:cy="94.488189"
     inkscape:window-width="1312"
     inkscape:window-height="449"
     inkscape:window-x="0"
     inkscape:window-y="38"
     inkscape:window-maximized="0"
     inkscape:current-layer="svg3" />
  <linearGradient
     id="a"
     gradientUnits="userSpaceOnUse"
     x1="21.192"
     x2="77.736"
     y1="37.552"
     y2="37.429">
    <stop
       offset="0"
       stop-color="#fff"
       id="stop1" />
    <stop
       offset="1"
       stop-color="#fff"
       stop-opacity="0"
       id="stop2" />
  </linearGradient>
  <path
     d="M28.408 9.22h4.216V5.825h6.799v9.296l-5.503 4.242v11.862l4.216 4.216v5.08h3.793v5.927H8.071V40.52h3.793v-5.08l4.242-4.216V19.363l-5.504-4.242V5.825h6.774V9.22h4.242V5.825h6.79z"
     fill="#1f1a17"
     id="path2" />
  <path
     d="M25.013 35.043h-10.27L13.6 36.11v1.44h22.826v-1.44l-1.143-1.067zM13.6 40.123v2.532h22.826v-2.532zM25.013 13.04h-12.7v1.142l1.812 1.364h21.801l1.761-1.364V13.04zm0 4.19h-8.679l1.482 1.169v1.414h14.393v-1.414l1.482-1.168zm0 13.547h-7.197v1.143l-1.482 1.44h17.357l-1.482-1.44v-1.143z"
     fill="url(#a)"
     id="path3"
     style="fill:#ffffff" />
</svg>
