<?xml version="1.0" encoding="UTF-8" standalone="no"?>
<svg
   clip-rule="evenodd"
   fill-rule="evenodd"
   height="50mm"
   image-rendering="optimizeQuality"
   shape-rendering="geometricPrecision"
   text-rendering="geometricPrecision"
   viewBox="0 0 50 50"
   width="50mm"
   version="1.1"
   id="svg3"
   sodipodi:docname="wR.svg"
   inkscape:version="1.3.2 (091e20e, 2023-11-25)"
   xmlns:inkscape="http://www.inkscape.org/namespaces/inkscape"
   xmlns:sodipodi="http://sodipodi.sourceforge.net/DTD/sodipodi-0.dtd"
   xmlns="http://www.w3.org/2000/svg"
   xmlns:svg="http://www.w3.org/2000/svg">
  <defs
     id="defs3" />
  <sodipodi:namedview
     id="namedview3"
     pagecolor="#ffffff"
     bordercolor="#000000"
     borderopacity="0.25"
     inkscape:showpageshadow="2"
     inkscape:pageopacity="0.0"
     inkscape:pagecheckerboard="0"
     inkscape:deskcolor="#d1d1d1"
     inkscape:document-units="mm"
     inkscape:zoom="1.2488333"
     inkscape:cx="94.087815"
     inkscape:cy="94.488189"
     inkscape:window-width="1312"
     inkscape:window-height="449"
     inkscape:window-x="0"
     inkscape:window-y="38"
     inkscape:window-maximized="0"
     inkscape:current-layer="svg3" />
  <linearGradient
     id="a"
     gradientUnits="userSpaceOnUse"
     x1="21.376"
     x2="77.641"
     y1="37.469"
     y2="37.469">
    <stop
       offset="0"
       stop-color="#fff"
       id="stop1" />
    <stop
       offset="1"
       stop-color="#fff"
       stop-opacity="0"
       id="stop2" />
  </linearGradient>
  <path
     d="M28.408 9.22h4.216V5.825h6.799v9.296l-5.503 4.242v11.862l4.216 4.216v5.08h3.793v5.927H8.071V40.52h3.793v-5.08l4.242-4.216V19.363l-5.504-4.242V5.825h6.774V9.22h4.242V5.825h6.79z"
     fill="#1f1a17"
     id="path2" />
  <path
     d="M33.073 17.678l3.15-2.557h-22.42l3.175 2.557zm7.197 24.528H9.756v2.557H40.27zm-3.844-5.055H13.6v3.37h22.826zm-4.217-17.788H17.816v11.862h14.393zm5.504-5.927V7.51h-3.395v3.395h-7.646V7.51h-3.344v3.395h-7.62V7.51h-3.395v5.926zm-1.914 22.005l-2.548-2.531H16.8l-2.6 2.531z"
     fill="url(#a)"
     id="path3"
     style="fill:#ffffff" />
</svg>
